<?xml version="1.0" standalone="no"?>
<!DOCTYPE svg PUBLIC "-//W3C//DTD SVG 20010904//EN"
 "http://www.w3.org/TR/2001/REC-SVG-20010904/DTD/svg10.dtd">
<svg version="1.0" xmlns="http://www.w3.org/2000/svg"
 width="84.000000pt" height="72.000000pt" viewBox="0 0 84.000000 72.000000"
 preserveAspectRatio="xMidYMid meet">

<g transform="translate(0.000000,72.000000) scale(0.100000,-0.100000)"
fill="#000000" stroke="none">
<path d="M0 360 l0 -360 420 0 420 0 0 360 0 360 -420 0 -420 0 0 -360z m147
248 c17 -13 76 -61 132 -108 l101 -84 0 -56 0 -55 -119 -100 c-66 -55 -132
-104 -146 -110 -51 -18 -55 2 -55 263 0 142 4 241 10 253 14 25 38 24 77 -3z
m483 -103 c100 -84 150 -132 150 -145 0 -22 -17 -38 -175 -169 -60 -51 -121
-95 -134 -98 -47 -12 -51 10 -51 266 0 204 2 237 17 253 9 10 22 18 29 18 8 0
81 -56 164 -125z"/>
</g>
</svg>
