<?xml version="1.0" encoding="UTF-8"?>
<svg version="1.1" xmlns="http://www.w3.org/2000/svg" width="81" height="72">
<path d="M0 0 C26.73 0 53.46 0 81 0 C81 23.76 81 47.52 81 72 C54.27 72 27.54 72 0 72 C0 48.24 0 24.48 0 0 Z " fill="#000" transform="translate(0,0)"/>
<path d="M0 0 C6.75 1.125 6.75 1.125 9.6484375 3.72265625 C10.26074219 4.26083984 10.87304688 4.79902344 11.50390625 5.35351562 C12.12136719 5.91748047 12.73882812 6.48144531 13.375 7.0625 C14.01566406 7.63033203 14.65632813 8.19816406 15.31640625 8.78320312 C16.88715458 10.17812142 18.4449145 11.58764153 20 13 C19.94233161 15.7785677 19.3999099 17.5374371 17.57568359 19.64746094 C15.66465594 21.45920774 13.6981972 23.17465363 11.6875 24.875 C11.01009766 25.48085938 10.33269531 26.08671875 9.63476562 26.7109375 C8.64573242 27.56171875 8.64573242 27.56171875 7.63671875 28.4296875 C7.03561279 28.94772949 6.43450684 29.46577148 5.81518555 29.99951172 C4 31 4 31 0 30 C0 20.1 0 10.2 0 0 Z " fill="#FAFAFA" transform="translate(41,21)"/>
<path d="M0 0 C4.42318101 0.70991475 7.37300835 3.29782002 10.75 6.0625 C11.35199219 6.51560547 11.95398438 6.96871094 12.57421875 7.43554688 C14.95739059 9.3890993 16.65920624 10.95196615 17.62597656 13.92504883 C17.91785113 17.1108368 17.60793967 19.15049413 15.72753906 21.77807617 C13.99344558 23.52680011 12.18702117 25.04247644 10.25 26.5625 C9.61578125 27.10712891 8.9815625 27.65175781 8.328125 28.21289062 C4.81139887 31.10319991 4.81139887 31.10319991 3 32 C0.78417969 31.64038086 0.78417969 31.64038086 -1 31 C-1.02465622 26.74585377 -1.04283899 22.49174502 -1.05493164 18.23754883 C-1.05997101 16.78929927 -1.06680253 15.34105483 -1.07543945 13.89282227 C-1.08752247 11.81525412 -1.09323211 9.73775303 -1.09765625 7.66015625 C-1.10289307 6.40855713 -1.10812988 5.15695801 -1.11352539 3.86743164 C-1 1 -1 1 0 0 Z " fill="#F9F9F9" transform="translate(21,20)"/>
</svg>
