<?xml version="1.0" encoding="UTF-8"?>
<!DOCTYPE svg PUBLIC "-//W3C//DTD SVG 1.1//EN" "http://www.w3.org/Graphics/SVG/1.1/DTD/svg11.dtd">
<svg xmlns="http://www.w3.org/2000/svg" version="1.1" width="219px" height="192px" style="shape-rendering:geometricPrecision; text-rendering:geometricPrecision; image-rendering:optimizeQuality; fill-rule:evenodd; clip-rule:evenodd" xmlns:xlink="http://www.w3.org/1999/xlink">
<g><path style="opacity:1" fill="#181616" d="M -0.5,-0.5 C 9.5,-0.5 19.5,-0.5 29.5,-0.5C 15.8511,4.31645 6.68441,13.6498 2,27.5C 1.33333,72.5 1.33333,117.5 2,162.5C 6.25613,176.921 15.4228,186.587 29.5,191.5C 19.5,191.5 9.5,191.5 -0.5,191.5C -0.5,127.5 -0.5,63.5 -0.5,-0.5 Z"/></g>
<g><path style="opacity:1" fill="#fd2725" d="M 29.5,-0.5 C 82.8333,-0.5 136.167,-0.5 189.5,-0.5C 202.563,2.21518 212.23,9.54851 218.5,21.5C 218.5,70.5 218.5,119.5 218.5,168.5C 212.637,181.036 202.971,188.703 189.5,191.5C 136.167,191.5 82.8333,191.5 29.5,191.5C 15.4228,186.587 6.25613,176.921 2,162.5C 1.33333,117.5 1.33333,72.5 2,27.5C 6.68441,13.6498 15.8511,4.31645 29.5,-0.5 Z"/></g>
<g><path style="opacity:1" fill="#1b1616" d="M 189.5,-0.5 C 199.167,-0.5 208.833,-0.5 218.5,-0.5C 218.5,6.83333 218.5,14.1667 218.5,21.5C 212.23,9.54851 202.563,2.21518 189.5,-0.5 Z"/></g>
<g><path style="opacity:1" fill="#fffcfc" d="M 71.5,44.5 C 75.9112,44.2028 79.9112,45.3694 83.5,48C 105.239,61.3984 127.239,74.3984 149.5,87C 153.367,90.6602 154.534,95.1602 153,100.5C 151.833,101.667 150.667,102.833 149.5,104C 127.239,116.602 105.239,129.602 83.5,143C 75.8915,148.54 69.7249,147.374 65,139.5C 64.3333,110.167 64.3333,80.8333 65,51.5C 65.9914,48.0107 68.158,45.6774 71.5,44.5 Z"/></g>
<g><path style="opacity:1" fill="#1c1716" d="M 218.5,168.5 C 218.5,176.167 218.5,183.833 218.5,191.5C 208.833,191.5 199.167,191.5 189.5,191.5C 202.971,188.703 212.637,181.036 218.5,168.5 Z"/></g>
</svg>
