<?xml version="1.0" standalone="no"?>
<!DOCTYPE svg PUBLIC "-//W3C//DTD SVG 20010904//EN"
 "http://www.w3.org/TR/2001/REC-SVG-20010904/DTD/svg10.dtd">
<svg version="1.0" xmlns="http://www.w3.org/2000/svg"
 width="219.000000pt" height="192.000000pt" viewBox="0 0 219.000000 192.000000"
 preserveAspectRatio="xMidYMid meet">

<g transform="translate(0.000000,192.000000) scale(0.100000,-0.100000)"
fill="#000000" stroke="none">
<path d="M0 960 l0 -960 1095 0 1095 0 0 960 0 960 -1095 0 -1095 0 0 -960z
m1133 303 c194 -115 365 -220 382 -234 24 -22 30 -35 30 -69 0 -34 -6 -47 -30
-69 -17 -14 -188 -119 -382 -233 -381 -225 -391 -229 -448 -184 l-30 24 0 462
0 462 28 24 c55 47 68 42 450 -183z"/>
</g>
</svg>
