<?xml version="1.0" encoding="UTF-8"?>
<svg version="1.1" xmlns="http://www.w3.org/2000/svg" width="81" height="72">
<path d="M0 0 C26.73 0 53.46 0 81 0 C81 23.76 81 47.52 81 72 C54.27 72 27.54 72 0 72 C0 48.24 0 24.48 0 0 Z " fill="#000" transform="translate(0,0)"/>
<path d="M0 0 C3.53571429 0.53571429 3.53571429 0.53571429 5 2 C5.08767112 4.07262076 5.10695873 6.14820294 5.09765625 8.22265625 C5.09443359 9.48271484 5.09121094 10.74277344 5.08789062 12.04101562 C5.07953403 13.38151109 5.07106907 14.72200588 5.0625 16.0625 C5.0574866 17.40689942 5.05292342 18.7513006 5.04882812 20.09570312 C5.03699488 23.39717941 5.02050971 26.69856803 5 30 C3.02 30.99 3.02 30.99 1 32 C0.10796875 31.24074219 -0.7840625 30.48148438 -1.703125 29.69921875 C-2.88536568 28.69525246 -4.06766018 27.69134954 -5.25 26.6875 C-5.83652344 26.18798828 -6.42304688 25.68847656 -7.02734375 25.17382812 C-9.95626566 22.68918088 -12.88855374 20.2565687 -16 18 C-15.88059108 15.37778004 -15.51241658 13.56998705 -13.73095703 11.58837891 C-12.04834869 10.10475016 -10.32609067 8.69885203 -8.5625 7.3125 C-7.37592627 6.35072388 -6.18971327 5.38850251 -5.00390625 4.42578125 C-4.01261719 3.62527344 -3.02132812 2.82476563 -2 2 C-1.34 1.34 -0.68 0.68 0 0 Z " fill="#F3F3F3" transform="translate(36,20)"/>
<path d="M0 0 C3.69230769 0.69230769 3.69230769 0.69230769 5 2 C5.2541555 6.64015325 5.18522798 11.29121306 5.1875 15.9375 C5.19974609 17.25169922 5.21199219 18.56589844 5.22460938 19.91992188 C5.22750977 21.7984082 5.22750977 21.7984082 5.23046875 23.71484375 C5.23457764 24.87105225 5.23868652 26.02726074 5.24291992 27.21850586 C5 30 5 30 3 32 C-1.03250543 31.78226213 -3.24046251 29.22279175 -6.0625 26.5625 C-8.66124502 24.12788624 -11.03292539 21.97804974 -14 20 C-15.03394189 13.41974731 -15.03394189 13.41974731 -12.78564453 10.33251953 C-11.11755583 8.77887244 -9.39807423 7.41371328 -7.5625 6.0625 C-6.95083984 5.58232422 -6.33917969 5.10214844 -5.70898438 4.60742188 C-4.1524549 3.38799713 -2.57756908 2.19208075 -1 1 C-0.67 0.67 -0.34 0.34 0 0 Z " fill="#F1F1F1" transform="translate(57,20)"/>
</svg>
