<?xml version="1.0" encoding="UTF-8"?>
<svg version="1.1" xmlns="http://www.w3.org/2000/svg" width="81" height="72">
<path d="M0 0 C32.67 0 65.34 0 99 0 C99 23.76 99 47.52 99 72 C66.33 72 33.66 72 0 72 C0 48.24 0 24.48 0 0 Z " fill="#171717" transform="translate(0,0)"/>
<path d="M0 0 C2.91048022 1.17061901 4.62326652 2.54264865 6.8515625 4.74609375 C7.56054688 5.4215625 8.26953125 6.09703125 9 6.79296875 C10.4765625 8.99609375 10.4765625 8.99609375 10.203125 11.76171875 C9.84347656 12.86773438 9.84347656 12.86773438 9.4765625 13.99609375 C7.4965625 13.99609375 5.5165625 13.99609375 3.4765625 13.99609375 C3.4765625 19.93609375 3.4765625 25.87609375 3.4765625 31.99609375 C9.4165625 31.99609375 15.3565625 31.99609375 21.4765625 31.99609375 C22.4765625 36.99609375 22.4765625 36.99609375 21.4765625 38.99609375 C18.24787504 39.14193439 15.02003885 39.23033481 11.7890625 39.30859375 C10.87705078 39.35048828 9.96503906 39.39238281 9.02539062 39.43554688 C4.37098313 39.52017247 2.20770865 39.5493184 -1.60546875 36.6640625 C-3.99101167 33.34567999 -4.65108037 30.97259501 -4.62109375 26.984375 C-4.61787109 26.22705078 -4.61464844 25.46972656 -4.61132812 24.68945312 C-4.60294922 23.90376953 -4.59457031 23.11808594 -4.5859375 22.30859375 C-4.58142578 21.51130859 -4.57691406 20.71402344 -4.57226562 19.89257812 C-4.560496 17.92705118 -4.54256098 15.9615629 -4.5234375 13.99609375 C-5.4721875 14.01671875 -6.4209375 14.03734375 -7.3984375 14.05859375 C-10.5234375 13.99609375 -10.5234375 13.99609375 -12.5234375 12.99609375 C-11.97326533 9.00734553 -10.03655884 7.01533566 -7.2734375 4.18359375 C-6.50515625 3.37277344 -5.736875 2.56195312 -4.9453125 1.7265625 C-2.5234375 -0.00390625 -2.5234375 -0.00390625 0 0 Z " fill="#F4F4F4" transform="translate(28.5234375,15.00390625)"/>
<path d="M0 0 C1.28293945 -0.05607422 1.28293945 -0.05607422 2.59179688 -0.11328125 C7.09772891 -0.17610602 9.05098864 -0.11361848 12.73046875 2.7109375 C15.16319247 6.02254943 15.81527861 8.38044471 15.78515625 12.38671875 C15.78193359 13.14404297 15.77871094 13.90136719 15.77539062 14.68164062 C15.76701172 15.46732422 15.75863281 16.25300781 15.75 17.0625 C15.74548828 17.85978516 15.74097656 18.65707031 15.73632812 19.47851562 C15.7245585 21.44404257 15.70662348 23.40953085 15.6875 25.375 C17.9975 25.375 20.3075 25.375 22.6875 25.375 C23.4765625 27.04296875 23.4765625 27.04296875 23.6875 29.375 C21.7734375 31.98828125 21.7734375 31.98828125 19.0625 34.6875 C18.18335937 35.59113281 17.30421875 36.49476562 16.3984375 37.42578125 C13.6875 39.375 13.6875 39.375 11.12109375 39.40234375 C8.26827134 38.19802225 6.56090362 36.8150202 4.375 34.625 C3.67761719 33.94953125 2.98023438 33.2740625 2.26171875 32.578125 C0.38612819 29.95322904 0.36193584 28.53131696 0.6875 25.375 C2.9975 25.375 5.3075 25.375 7.6875 25.375 C7.6875 19.435 7.6875 13.495 7.6875 7.375 C1.80866997 7.41457769 1.80866997 7.41457769 -4.07006836 7.46508789 C-4.79846924 7.46758545 -5.52687012 7.47008301 -6.27734375 7.47265625 C-7.0262085 7.47789307 -7.77507324 7.48312988 -8.54663086 7.48852539 C-10.3125 7.375 -10.3125 7.375 -11.3125 6.375 C-11.35313832 4.70882885 -11.355221 3.04111905 -11.3125 1.375 C-7.80807863 -0.37721068 -3.86165569 0.06316463 0 0 Z " fill="#F6F6F6" transform="translate(59.3125,17.625)"/>
</svg>
