<?xml version="1.0" standalone="no"?>
<!DOCTYPE svg PUBLIC "-//W3C//DTD SVG 20010904//EN"
 "http://www.w3.org/TR/2001/REC-SVG-20010904/DTD/svg10.dtd">
<svg version="1.0" xmlns="http://www.w3.org/2000/svg"
 width="96.000000pt" height="72.000000pt" viewBox="0 0 96.000000 72.000000"
 preserveAspectRatio="xMidYMid meet">

<g transform="translate(0.000000,72.000000) scale(0.100000,-0.100000)"
fill="#000000" stroke="none">
<path d="M0 360 l0 -360 480 0 480 0 0 360 0 360 -480 0 -480 0 0 -360z m338
156 c58 -62 54 -86 -14 -86 -25 0 -25 0 -22 -87 l3 -88 89 -5 c68 -4 91 -9 99
-22 8 -12 7 -21 -2 -32 -11 -13 -34 -16 -106 -16 -86 0 -96 2 -124 26 -31 26
-31 27 -31 124 l0 99 -37 3 c-59 5 -56 33 11 97 64 60 67 59 134 -13z m361 -2
c31 -26 31 -27 31 -124 l0 -99 38 -3 c58 -5 55 -33 -12 -96 -30 -29 -59 -52
-64 -52 -5 0 -33 25 -61 55 -62 65 -64 89 -8 93 l38 3 -3 87 -3 87 -89 5 c-68
4 -91 9 -99 22 -8 12 -7 21 2 32 11 13 34 16 106 16 86 0 96 -2 124 -26z"/>
</g>
</svg>
