<?xml version="1.0" standalone="no"?>
<!DOCTYPE svg PUBLIC "-//W3C//DTD SVG 20010904//EN"
 "http://www.w3.org/TR/2001/REC-SVG-20010904/DTD/svg10.dtd">
<svg version="1.0" xmlns="http://www.w3.org/2000/svg"
 width="48.000000pt" height="48.000000pt" viewBox="0 0 48.000000 48.000000"
 preserveAspectRatio="xMidYMid meet">

<g transform="translate(0.000000,48.000000) scale(0.100000,-0.100000)"
fill="#000000" stroke="none">
<path d="M0 403 l0 -78 19 40 c22 48 53 78 101 99 l35 15 -77 1 -78 0 0 -77z"/>
<path d="M275 461 c96 -44 140 -153 100 -248 l-16 -37 61 -60 60 -61 0 213 0
212 -122 0 -123 0 40 -19z"/>
<path d="M114 366 c-49 -49 -49 -113 0 -162 49 -49 113 -49 162 0 29 29 34 41
34 81 0 68 -47 115 -115 115 -40 0 -52 -5 -81 -34z"/>
<path d="M0 123 l0 -123 212 0 213 0 -61 60 -60 61 -37 -16 c-95 -40 -204 4
-248 100 l-19 40 0 -122z"/>
<path d="M458 19 c-17 -18 -17 -19 2 -19 13 0 20 7 20 20 0 24 0 24 -22 -1z"/>
</g>
</svg>
