<?xml version="1.0" encoding="UTF-8"?>
<svg version="1.1" xmlns="http://www.w3.org/2000/svg" width="81" height="72">
<path d="M0 0 C26.73 0 53.46 0 81 0 C81 23.76 81 47.52 81 72 C54.27 72 27.54 72 0 72 C0 48.24 0 24.48 0 0 Z " fill="#000" transform="translate(0,0)"/>
<path d="M0 0 C4.42932647 -1.38720664 7.5916269 -1.54317096 12 0 C16.99585218 4.91723924 20.67836876 11.08941158 24.33764648 17.02880859 C26.33223994 19.39396464 28.08340198 20.07857874 31 21 C31 19.35 31 17.7 31 16 C35 16 35 16 36.73828125 17.171875 C37.25777344 17.69265625 37.77726562 18.2134375 38.3125 18.75 C38.84488281 19.26046875 39.37726562 19.7709375 39.92578125 20.296875 C41 22 41 22 40.859375 24 C39.8733183 26.29482286 38.7550871 27.54842909 36.9375 29.25 C36.38964844 29.77078125 35.84179688 30.2915625 35.27734375 30.828125 C34.85582031 31.21484375 34.43429688 31.6015625 34 32 C33.01 31.67 32.02 31.34 31 31 C31 29.35 31 27.7 31 26 C29.98550781 26.17144531 28.97101562 26.34289062 27.92578125 26.51953125 C23.55646115 25.94130282 23.18293707 25.61148536 20.54296875 22.38671875 C19.4015278 20.83695746 18.28361669 19.26964276 17.1875 17.6875 C16.61580078 16.90181641 16.04410156 16.11613281 15.45507812 15.30664062 C13.23769433 12.2450355 11.09692455 9.14538683 9 6 C7.03638136 5.42251197 7.03638136 5.42251197 4.875 5.3125 C3.59625 5.209375 2.3175 5.10625 1 5 C0.67 3.35 0.34 1.7 0 0 Z " fill="#F8F8F8" transform="translate(20,23)"/>
<path d="M0 0 C3.82792868 1.5595265 6.36359864 3.83631836 9 7 C8.70477145 10.36828935 7.3529145 11.98876089 4.9375 14.25 C4.38964844 14.77078125 3.84179688 15.2915625 3.27734375 15.828125 C2.85582031 16.21484375 2.43429688 16.6015625 2 17 C1.01 16.67 0.02 16.34 -1 16 C-1 14.35 -1 12.7 -1 11 C-4.37503669 12.1858237 -6.64722731 13.27573689 -9 16 C-11 13 -11 13 -10.75 10.4375 C-10 8 -10 8 -8 6 C-4.375 5.875 -4.375 5.875 -1 6 C-1.020625 5.195625 -1.04125 4.39125 -1.0625 3.5625 C-1 1 -1 1 0 0 Z " fill="#FAFAFA" transform="translate(52,17)"/>
<path d="M0 0 C1.32 0.66 2.64 1.32 4 2 C3.38722388 4.96175123 2.74627478 6.38058783 1 9 C-1.6015625 9.29296875 -1.6015625 9.29296875 -4.625 9.1875 C-6.12933594 9.14689453 -6.12933594 9.14689453 -7.6640625 9.10546875 C-8.43492188 9.07066406 -9.20578125 9.03585938 -10 9 C-10.33 7.35 -10.66 5.7 -11 4 C-10.37351562 3.96261719 -9.74703125 3.92523438 -9.1015625 3.88671875 C-8.28429687 3.82097656 -7.46703125 3.75523438 -6.625 3.6875 C-5.81289063 3.62949219 -5.00078125 3.57148437 -4.1640625 3.51171875 C-1.62078662 3.17009472 -1.62078662 3.17009472 0 0 Z " fill="#F6F6F6" transform="translate(31,40)"/>
</svg>
