<?xml version="1.0" standalone="no"?>
<!DOCTYPE svg PUBLIC "-//W3C//DTD SVG 20010904//EN"
 "http://www.w3.org/TR/2001/REC-SVG-20010904/DTD/svg10.dtd">
<svg version="1.0" xmlns="http://www.w3.org/2000/svg"
 width="84.000000pt" height="72.000000pt" viewBox="0 0 84.000000 72.000000"
 preserveAspectRatio="xMidYMid meet">

<g transform="translate(0.000000,72.000000) scale(0.100000,-0.100000)"
fill="#000000" stroke="none">
<path d="M0 360 l0 -360 420 0 420 0 0 360 0 360 -420 0 -420 0 0 -360z m723
252 c31 -33 57 -66 57 -72 0 -7 -28 -41 -62 -76 -49 -51 -67 -64 -88 -62 -22
3 -25 8 -28 46 -3 41 -4 42 -37 42 -27 0 -39 -7 -61 -35 -14 -19 -29 -35 -33
-35 -3 0 -16 16 -29 36 l-23 35 32 43 c33 47 51 56 112 56 36 0 37 1 37 40 0
42 22 65 50 50 8 -4 41 -35 73 -68z m-471 -30 c9 -4 74 -83 145 -177 122 -162
130 -170 166 -173 l37 -3 0 40 c0 30 5 43 20 51 18 10 29 3 90 -56 39 -37 70
-75 70 -83 0 -9 -29 -45 -64 -80 -48 -48 -69 -62 -87 -59 -20 2 -24 9 -27 46
-3 41 -4 42 -40 42 -20 0 -47 3 -58 6 -13 3 -76 77 -153 180 l-132 174 -57 0
c-63 0 -102 19 -102 50 0 33 39 50 110 49 36 0 72 -3 82 -7z m53 -317 l27 -34
-32 -45 c-36 -50 -50 -56 -135 -56 -66 0 -105 18 -105 50 0 31 39 50 102 50
53 0 59 2 85 35 15 19 29 35 30 35 1 0 14 -16 28 -35z"/>
</g>
</svg>
